<svg width="24" height="24" fill="none" xmlns="http://www.w3.org/2000/svg"><path d="M12 11.605c2.324 0 4.208-1.926 4.208-4.302C16.208 4.926 14.324 3 12 3 9.677 3 7.793 4.926 7.793 7.303c0 2.376 1.884 4.302 4.207 4.302zm0-6.42c1.144 0 2.07.949 2.07 2.118S13.144 9.419 12 9.419c-1.143 0-2.07-.947-2.07-2.116 0-1.17.927-2.117 2.07-2.117zm4.85 6.945c-.237-.488-.895-.894-1.77-.19-1.181.953-3.08.953-3.08.953s-1.898 0-3.08-.952c-.874-.705-1.532-.299-1.77.19-.414.85.054 1.261 1.11 1.954.901.592 2.14.813 2.941.896l-.668.683c-.94.963-1.85 1.891-2.48 2.536a1.002 1.002 0 000 1.395l.114.116a.95.95 0 001.365 0l2.48-2.535 2.479 2.535a.95.95 0 001.364 0l.114-.116a1.003 1.003 0 000-1.395l-2.48-2.536-.67-.685c.801-.084 2.027-.306 2.922-.893 1.056-.694 1.524-1.105 1.11-1.956z" fill="#222527"/></svg>