<svg width="34" height="28" fill="none" xmlns="http://www.w3.org/2000/svg"><path d="M29.95 1.68c0-.24.045-.466.136-.666.09-.207.213-.381.361-.53A1.689 1.689 0 0131.635 0a1.727 1.727 0 011.188.478c.155.149.278.323.362.53.09.2.135.42.135.658a1.665 1.665 0 01-1.033 1.557 1.702 1.702 0 01-1.304 0c-.206-.084-.38-.2-.536-.349a1.609 1.609 0 01-.361-.53 1.634 1.634 0 01-.136-.665zm.271 0c0 .2.04.387.11.561.071.175.174.323.304.452a1.42 1.42 0 001.007.413 1.412 1.412 0 001.31-.871 1.49 1.49 0 000-1.13 1.36 1.36 0 00-.755-.75 1.443 1.443 0 00-1.11 0 1.427 1.427 0 00-.756.756c-.07.168-.11.362-.11.568zm.794-.97h.71c.233 0 .407.046.517.13.11.09.168.232.168.426 0 .174-.052.304-.148.381a.623.623 0 01-.362.142l.555.853h-.29l-.53-.833h-.348v.833h-.271V.71zm.265.866h.33c.064 0 .129 0 .193-.006a.64.64 0 00.168-.04.216.216 0 00.116-.096.355.355 0 00.045-.18.315.315 0 00-.038-.162.235.235 0 00-.104-.09.513.513 0 00-.142-.04c-.051-.006-.103-.006-.155-.006h-.42v.62h.007zM.75 28h27.2V0H.75v28zm12.583-12.26l-3.062 5.258H3.467l8.147-13.996h1.713v8.739h.006zm5.096 5.258l-3.062-5.257V7h1.713l8.146 13.997H18.43z" fill="#C6000E"/></svg>