<svg width="225" height="40" fill="none" xmlns="http://www.w3.org/2000/svg"><g clip-path="url(#clip0)" fill="#C6000E"><path d="M51.441 10.002h8.868c1.007 0 2.013.101 3.01.295.997.194 1.89.545 2.677 1.043.788.498 1.415 1.172 1.909 2.002.484.84.721 1.892.721 3.147 0 1.227-.313 2.306-.93 3.238-.617.932-1.51 1.652-2.668 2.16l5.222 8.11h-7.947l-3.94-7.142h-.2v7.142h-6.712V10.002h-.01zm6.656 8.443h1.358c.228 0 .484-.019.769-.055a2.46 2.46 0 00.778-.24c.238-.12.447-.296.608-.508.161-.221.247-.507.247-.858 0-.36-.067-.637-.2-.849a1.246 1.246 0 00-.522-.461 2.139 2.139 0 00-.693-.194 6.398 6.398 0 00-.693-.046h-1.643v3.21h-.009zm11.279 1.44c0-1.597.294-3.045.873-4.337a9.615 9.615 0 012.393-3.294c1.016-.905 2.222-1.597 3.618-2.095 1.395-.489 2.905-.738 4.528-.738 1.624 0 3.143.249 4.539.738a10.97 10.97 0 013.636 2.095 9.542 9.542 0 012.412 3.294c.579 1.292.873 2.731.873 4.337 0 1.605-.294 3.063-.873 4.382a9.867 9.867 0 01-2.412 3.378c-1.025.932-2.24 1.651-3.636 2.159-1.396.507-2.906.766-4.539.766-1.623 0-3.133-.259-4.528-.766-1.396-.508-2.602-1.227-3.618-2.16a9.945 9.945 0 01-2.392-3.377c-.58-1.319-.874-2.777-.874-4.382zm7.358 0c0 .655.105 1.264.304 1.808.2.544.484 1.015.845 1.412.36.397.788.701 1.291.913a3.98 3.98 0 001.624.323c.579 0 1.12-.11 1.614-.323a3.93 3.93 0 001.291-.913 4.13 4.13 0 00.855-1.412 5.218 5.218 0 00.303-1.808c0-.637-.104-1.228-.303-1.763a3.983 3.983 0 00-.855-1.356 3.82 3.82 0 00-1.291-.858 4.22 4.22 0 00-1.614-.314c-.58 0-1.12.101-1.624.314a3.9 3.9 0 00-1.291.858c-.36.369-.636.821-.845 1.356a5.024 5.024 0 00-.304 1.763zm16.284.11c0-1.596.294-3.054.873-4.346a9.956 9.956 0 012.383-3.33c1.007-.923 2.193-1.634 3.56-2.132 1.368-.498 2.83-.748 4.378-.748 1.585 0 3.085.25 4.5.748s2.601 1.172 3.551 2.02l-4.244 4.974a3.804 3.804 0 00-1.453-1.116c-.579-.259-1.234-.379-1.946-.379-.579 0-1.121.102-1.624.296a3.8 3.8 0 00-1.319.858 3.83 3.83 0 00-.883 1.375 4.897 4.897 0 00-.323 1.79c0 .655.114 1.245.332 1.762.218.517.522.969.902 1.338.38.378.817.664 1.32.858a4.402 4.402 0 001.595.295c.797 0 1.481-.156 2.051-.48.569-.322 1.025-.7 1.348-1.134l4.244 4.945c-.931.905-2.07 1.624-3.428 2.16-1.357.535-2.895.802-4.623.802a12.5 12.5 0 01-4.377-.765c-1.368-.508-2.554-1.228-3.56-2.16a10.144 10.144 0 01-2.384-3.33c-.58-1.283-.873-2.713-.873-4.3zm26.84 2.039h-.057v7.963h-6.712V10.002h6.684v7.373h.057l5.497-7.373h8.137l-7.729 9.144 8.109 10.851h-8.488l-5.498-7.963z"/><path d="M145.855 29.997h-6.979l-5.602-19.995h7.321l2.212 11.239h.114l2.383-11.239h7.235l2.592 11.239h.114l2.231-11.239h7.092l-5.725 19.995h-6.969l-2.905-11.294h-.124l-2.99 11.294zm17.621-10.112c0-1.597.294-3.045.873-4.337a9.613 9.613 0 012.393-3.294c1.016-.905 2.221-1.597 3.617-2.095 1.396-.489 2.905-.738 4.538-.738 1.624 0 3.134.249 4.529.738a10.97 10.97 0 013.637 2.095 9.543 9.543 0 012.411 3.294c.579 1.292.874 2.731.874 4.337 0 1.605-.295 3.063-.874 4.382a9.868 9.868 0 01-2.411 3.378c-1.026.932-2.241 1.651-3.637 2.159-1.395.507-2.905.766-4.529.766-1.623 0-3.142-.259-4.538-.766-1.396-.508-2.601-1.227-3.617-2.16a9.943 9.943 0 01-2.393-3.377c-.579-1.319-.873-2.777-.873-4.382zm7.358 0c0 .655.104 1.264.304 1.808a4.24 4.24 0 00.845 1.412c.36.397.788.701 1.291.913a3.978 3.978 0 001.623.323c.58 0 1.121-.11 1.615-.323a3.945 3.945 0 002.145-2.325c.2-.544.304-1.144.304-1.808a5.01 5.01 0 00-.304-1.763 3.982 3.982 0 00-.854-1.356 3.93 3.93 0 00-1.291-.858 4.222 4.222 0 00-1.615-.314 4.13 4.13 0 00-1.623.314 4 4 0 00-1.291.858c-.361.36-.636.821-.845 1.356a5.01 5.01 0 00-.304 1.763zm16.283 0c0-1.597.295-3.045.874-4.337a9.61 9.61 0 012.392-3.294c1.016-.905 2.222-1.597 3.618-2.095 1.395-.489 2.905-.738 4.538-.738 1.624 0 3.133.249 4.529.738a10.965 10.965 0 013.636 2.095 9.533 9.533 0 012.412 3.294c.579 1.292.873 2.731.873 4.337 0 1.605-.294 3.063-.873 4.382a9.857 9.857 0 01-2.412 3.378c-1.025.932-2.24 1.651-3.636 2.159-1.396.507-2.905.766-4.529.766s-3.143-.259-4.538-.766c-1.396-.508-2.602-1.227-3.618-2.16a9.94 9.94 0 01-2.392-3.377c-.579-1.319-.874-2.777-.874-4.382zm7.358 0c0 .655.105 1.264.304 1.808.2.544.484 1.015.845 1.412s.788.701 1.291.913a3.986 3.986 0 001.624.323c.579 0 1.12-.11 1.614-.323a3.924 3.924 0 001.291-.913c.371-.397.655-.867.855-1.412a5.221 5.221 0 00.304-1.808c0-.637-.105-1.228-.304-1.763a3.984 3.984 0 00-.855-1.356 3.91 3.91 0 00-1.291-.858 4.22 4.22 0 00-1.614-.314c-.579 0-1.12.101-1.624.314-.503.212-.93.498-1.291.858-.361.36-.636.821-.845 1.356-.209.535-.304 1.126-.304 1.763zm16.72-9.883h6.969v14.2H225v5.795h-13.805V10.002zM0 40h40V0H0v40zm18.505-17.513L14 29.997H3.996l11.98-19.995h2.52v12.485h.009zm7.494 7.51l-4.504-7.51V10.002h2.52l11.98 19.996h-9.996zm194.035-17.632c0-.341.067-.665.2-.95a2.432 2.432 0 011.319-1.265 2.601 2.601 0 011.918 0c.304.12.57.286.788.499.228.212.408.461.532.756.133.286.199.6.199.941 0 .342-.066.665-.199.96a2.436 2.436 0 01-.532.757 2.66 2.66 0 01-.788.507 2.566 2.566 0 01-2.706-.498 2.278 2.278 0 01-.531-.757 2.277 2.277 0 01-.2-.95zm.399 0c0 .286.057.553.161.803.105.249.257.461.447.646.189.184.408.322.664.433.247.102.522.157.817.157a2.106 2.106 0 001.481-.59 1.88 1.88 0 00.446-.656 2.06 2.06 0 00.162-.812c0-.286-.057-.553-.162-.802a1.93 1.93 0 00-.446-.646 1.975 1.975 0 00-.665-.425 2.14 2.14 0 00-.816-.157 2.09 2.09 0 00-1.481.59c-.19.185-.342.398-.447.647-.104.24-.161.517-.161.812zm1.168-1.384h1.044c.342 0 .598.064.76.184.161.13.247.333.247.61 0 .248-.076.433-.219.544a.932.932 0 01-.531.203l.816 1.218h-.427l-.779-1.19H222v1.19h-.399v-2.76zm.389 1.236h.484c.095 0 .19 0 .285-.009a.964.964 0 00.247-.055.316.316 0 00.171-.139.496.496 0 00.066-.258.44.44 0 00-.057-.23.34.34 0 00-.152-.13.762.762 0 00-.208-.055c-.076-.01-.152-.01-.228-.01h-.617v.886h.009z"/></g><defs><clipPath id="clip0"><path fill="#fff" d="M0 0h225v40H0z"/></clipPath></defs></svg>